<svg width="34" height="34" viewBox="0 0 34 34" fill="none" xmlns="http://www.w3.org/2000/svg">
<path d="M17.0388 34C12.2743 34 8.243 32.3511 4.94504 29.0532C1.64835 25.7565 0 21.726 0 16.9615C0 12.6073 1.4199 8.82852 4.2597 5.62529C7.0995 2.42333 10.7281 0.554144 15.1456 0.0177484C15.9344 -0.0769097 16.5497 0.207065 16.9915 0.869671C17.4332 1.53228 17.4174 2.22644 16.9441 2.95215C16.4077 3.77252 16.0051 4.64022 15.7363 5.55525C15.4687 6.47027 15.3349 7.43263 15.3349 8.44232C15.3349 11.2821 16.3289 13.6958 18.3167 15.6837C20.3046 17.6715 22.7184 18.6654 25.5582 18.6654C26.5364 18.6654 27.5069 18.5234 28.47 18.2394C29.4317 17.9555 30.2912 17.561 31.0485 17.0562C31.7111 16.6145 32.3895 16.5905 33.0837 16.9843C33.7779 17.3793 34.0776 18.0028 33.983 18.8547C33.5412 23.209 31.6878 26.8218 28.4226 29.6931C25.1562 32.5644 21.3616 34 17.0388 34ZM17.0388 30.2137C19.8155 30.2137 22.3082 29.4488 24.517 27.9192C26.7257 26.3882 28.3349 24.3922 29.3446 21.9311C28.7135 22.0889 28.0825 22.2151 27.4514 22.3097C26.8203 22.4044 26.1893 22.4517 25.5582 22.4517C21.6772 22.4517 18.3716 21.0874 15.6416 18.3587C12.9129 15.6288 11.5485 12.3233 11.5485 8.44232C11.5485 7.81126 11.5959 7.18021 11.6905 6.54916C11.7852 5.9181 11.9114 5.28705 12.0692 4.65599C9.608 5.66568 7.61256 7.27487 6.08285 9.48356C4.55189 11.6922 3.7864 14.1849 3.7864 16.9615C3.7864 20.6217 5.08009 23.7454 7.66746 26.3327C10.2548 28.92 13.3786 30.2137 17.0388 30.2137Z" fill="#FFFEF9"/>
</svg>
