<svg width="55" height="43" viewBox="0 0 55 43" fill="none" xmlns="http://www.w3.org/2000/svg">
<path fill-rule="evenodd" clip-rule="evenodd" d="M3.05556 36.8571C2.24517 36.8571 1.46798 36.5335 0.894951 35.9575C0.321924 35.3815 0 34.6003 0 33.7857C0 32.9711 0.321924 32.1899 0.894951 31.6139C1.46798 31.0379 2.24517 30.7143 3.05556 30.7143H9.16667L18.3333 21.5L9.16667 12.2857H3.05556C2.26881 12.2503 1.52596 11.9113 0.981677 11.3392C0.437394 10.767 0.133628 10.0059 0.133628 9.21429C0.133628 8.42266 0.437394 7.66155 0.981677 7.08942C1.52596 6.51729 2.26881 6.17823 3.05556 6.14286H12.2222L24.4444 18.4286L36.6667 6.14286H42.7778V0L55 9.21736L42.7778 18.4286V12.2857H39.7222L30.5556 21.5L39.7222 30.7143H42.7778V24.5714L55 33.7857L42.7778 43V36.8571H36.6667L24.4444 24.5714L12.2222 36.8571H3.05556Z" fill="#5060B3"/>
</svg>
